# xmcd
#
# Track frame offsets: 
#        183
#        15378
#        32643
#        48083
#        61645
#        74580
#        94083
#        110040
#        119200
#        132825
#        147028
#        164905
#        177540
#        193733
#
# Disc length: 2765 seconds
#
# Revision: 3
# Processed by: cddbd v1.5.2PL0 Copyright (c) Steve Scherf et al.
# Submitted via: ExactAudioCopy v0.99pb5
#
DISCID=ce0acb0e
DTITLE=Max Greger - Die Goldene Hitparade Des Herzens
DYEAR=1990
DGENRE=Instrumental
TTITLE0=Aber Dich Gibts Nur Einmal Für Mich
TTITLE1=Silberfaeden
TTITLE2=Wo Die Alpenrosen Bluehn
TTITLE3=Meine Welt Ist Die Musik
TTITLE4=Weisser Holunder
TTITLE5=Mama Leone
TTITLE6=Edelweiss
TTITLE7=Eine Reise Ins Glueck
TTITLE8=Almenrauschen Und Edelweiss
TTITLE9=Wenn Ein Stern Vom Himmel Fällt
TTITLE10=La Provence
TTITLE11=Wenn Die Glocken Hell Erklingen
TTITLE12=La Paloma
TTITLE13=Auf Der Heide Bluehn Die Letzten Rosen
EXTD=
EXTT0=
EXTT1=
EXTT2=
EXTT3=
EXTT4=
EXTT5=
EXTT6=
EXTT7=
EXTT8=
EXTT9=
EXTT10=
EXTT11=
EXTT12=
EXTT13=
PLAYORDER=
